<?xml version="1.0" encoding="UTF-8" standalone="no"?>
<svg width="23px" height="19px" viewBox="0 0 23 19" version="1.1" xmlns="http://www.w3.org/2000/svg" xmlns:xlink="http://www.w3.org/1999/xlink" xmlns:sketch="http://www.bohemiancoding.com/sketch/ns">
    <!-- Generator: Sketch 3.5.1 (25234) - http://www.bohemiancoding.com/sketch -->
    <title>icon-team-select</title>
    <desc>Created with Sketch.</desc>
    <defs></defs>
    <g id="Page-1" stroke="none" stroke-width="1" fill="none" fill-rule="evenodd" sketch:type="MSPage">
        <g id="sf-champ-app-01-home" sketch:type="MSArtboardGroup" transform="translate(-335.000000, -38.000000)" stroke-linecap="round" stroke="#FFFFFF" fill="#FFFFFF" stroke-linejoin="round">
            <g id="header" sketch:type="MSLayerGroup">
                <g id="icon-team-select" transform="translate(336.000000, 39.000000)" sketch:type="MSShapeGroup">
                    <path d="M9,1 L9,0 L21,0 L21,1 L9,1 L9,1 Z M9,9 L9,8 L21,8 L21,9 L9,9 L9,9 Z M9,17 L9,16 L21,16 L21,17 L9,17 L9,17 Z" id="menu-copy"></path>
                    <path d="M0,1 L0,0 L4,0 L4,1 L0,1 L0,1 Z M0,9 L0,8 L4,8 L4,9 L0,9 L0,9 Z M0,17 L0,16 L4,16 L4,17 L0,17 L0,17 Z" id="menu-copy-2"></path>
                </g>
            </g>
        </g>
    </g>
</svg>